<svg width="20" height="20" viewBox="0 0 20 20" fill="none" xmlns="http://www.w3.org/2000/svg">
<path d="M2.09003 6.25H3.43751L5.00001 8.125H7.50001L6.52422 5.19764C6.49291 5.10369 6.48436 5.00364 6.4993 4.90574C6.51423 4.80784 6.55222 4.7149 6.61012 4.63456C6.66803 4.55422 6.7442 4.48879 6.83235 4.44366C6.9205 4.39853 7.01812 4.375 7.11715 4.375H8.43751L11.875 8.125H16.25C16.913 8.125 17.5489 8.38839 18.0178 8.85723C18.4866 9.32607 18.75 9.96196 18.75 10.625V12.5H4.98509C4.44744 12.5 3.92411 12.3267 3.49276 12.0057C3.06141 11.6848 2.74501 11.2333 2.59052 10.7184L1.49139 7.05459C1.46339 6.96127 1.4576 6.86269 1.47448 6.76673C1.49135 6.67077 1.53043 6.58009 1.58859 6.50192C1.64675 6.42375 1.72239 6.36026 1.80945 6.31652C1.89651 6.27278 1.99259 6.25 2.09003 6.25Z" stroke="#FF8080" stroke-width="1.5" stroke-linecap="round" stroke-linejoin="round"/>
</svg>
