<svg width="21" height="20" viewBox="0 0 21 20" fill="none" xmlns="http://www.w3.org/2000/svg">
<path d="M14.5625 15.625C15.7706 15.625 16.75 14.6456 16.75 13.4375C16.75 12.2294 15.7706 11.25 14.5625 11.25C13.3544 11.25 12.375 12.2294 12.375 13.4375C12.375 14.6456 13.3544 15.625 14.5625 15.625Z" stroke="#FF8080" stroke-width="1.5" stroke-linecap="round" stroke-linejoin="round"/>
<path d="M4.5625 18.125C5.77062 18.125 6.75 17.1456 6.75 15.9375C6.75 14.7294 5.77062 13.75 4.5625 13.75C3.35438 13.75 2.375 14.7294 2.375 15.9375C2.375 17.1456 3.35438 18.125 4.5625 18.125Z" stroke="#FF8080" stroke-width="1.5" stroke-linecap="round" stroke-linejoin="round"/>
<path d="M16.75 6.25L6.75 8.75" stroke="#FF8080" stroke-width="1.5" stroke-linecap="round" stroke-linejoin="round"/>
<path d="M6.75 15.9375V5L16.75 2.5V13.4375" stroke="#FF8080" stroke-width="1.5" stroke-linecap="round" stroke-linejoin="round"/>
</svg>
