<svg width="8" height="11" viewBox="0 0 8 11" fill="none" xmlns="http://www.w3.org/2000/svg">
<path fill-rule="evenodd" clip-rule="evenodd" d="M7.51936 3.824V5.088H3.36737V8.2C3.36737 8.38056 3.37898 8.52533 3.39994 8.63714C3.42068 8.74778 3.44834 8.81364 3.47254 8.84945C3.51979 8.90835 3.63811 8.972 3.91137 8.972C4.12163 8.972 4.33467 8.92659 4.55184 8.83249L4.55401 8.83154C4.78146 8.73616 4.98176 8.60849 5.15622 8.44857L5.15921 8.44582C5.34177 8.28517 5.48628 8.10426 5.59438 7.90283C5.70057 7.6971 5.75137 7.49283 5.75137 7.288C5.75137 7.13641 5.70858 7.04748 5.64727 6.99056L5.64185 6.98552C5.59313 6.9368 5.4863 6.888 5.26736 6.888C5.06614 6.888 4.88331 6.91036 4.71785 6.95352L4.50196 7.00984L4.32421 5.80116L4.49093 5.75212C4.63806 5.70885 4.79254 5.67881 4.95404 5.66156C5.12231 5.63654 5.29077 5.624 5.45936 5.624C5.91674 5.624 6.30812 5.74077 6.61548 5.99114C6.95215 6.25013 7.09936 6.66019 7.09936 7.168C7.09936 7.56897 7.00324 7.95577 6.81384 8.32627C6.63484 8.684 6.39254 9.00643 6.08869 9.2934L6.08652 9.29544C5.78165 9.57491 5.43824 9.79535 5.05716 9.95625C4.67353 10.1182 4.27914 10.2 3.87537 10.2C3.56687 10.2 3.29959 10.1669 3.08012 10.0937L3.07309 10.0914C2.86051 10.0117 2.67678 9.90272 2.52658 9.7619L2.52187 9.75749C2.43237 9.668 2.35212 9.56968 2.28096 9.46294L2.27692 9.45689C2.19823 9.32902 2.13986 9.17114 2.0968 8.99032L2.09431 8.97983C2.05927 8.78712 2.04337 8.5417 2.04337 8.248V5.088H0.879365V3.824H2.04337V3.16C2.04337 2.88809 2.02381 2.67155 1.98793 2.50648L1.98585 2.49692C1.95972 2.34011 1.90251 2.24584 1.83043 2.18817L1.82428 2.18325C1.75527 2.12345 1.631 2.076 1.41536 2.076C1.28477 2.076 1.15306 2.09656 1.01959 2.13871L1.01293 2.14082C0.873172 2.17964 0.755551 2.21759 0.659161 2.25467L0.480448 2.3234L0 1.22015L0.183843 1.14048C0.433403 1.03234 0.677167 0.952124 0.914939 0.900977C1.16211 0.841528 1.41706 0.811996 1.67936 0.811996C1.92837 0.811996 2.1532 0.846161 2.34914 0.920556C2.55184 0.994493 2.7264 1.10694 2.86892 1.25883C3.04059 1.4402 3.16129 1.67925 3.23936 1.96388C3.32754 2.24818 3.36737 2.63463 3.36737 3.112V3.824H7.51936ZM3.16737 3.112C3.16737 2.64 3.12737 2.276 3.04736 2.02C2.97536 1.756 2.86737 1.548 2.72337 1.396C2.60337 1.268 2.45536 1.172 2.27937 1.108C2.11137 1.044 1.91136 1.012 1.67936 1.012C1.43136 1.012 1.19137 1.04 0.959365 1.096C0.793526 1.13153 0.623303 1.18242 0.448694 1.24865C0.387457 1.27188 0.325681 1.29699 0.263365 1.324L0.587365 2.068C0.691365 2.028 0.815365 1.988 0.959365 1.948C1.11136 1.9 1.26336 1.876 1.41536 1.876C1.65536 1.876 1.83536 1.928 1.95536 2.032C2.07536 2.128 2.15137 2.272 2.18337 2.464C2.22337 2.648 2.24337 2.88 2.24337 3.16V4.024H1.07936V4.888H2.24337V8.248C2.24337 8.536 2.25937 8.768 2.29137 8.944C2.33137 9.112 2.38336 9.248 2.44737 9.352C2.51137 9.448 2.58337 9.536 2.66337 9.616C2.79136 9.736 2.95136 9.832 3.14337 9.904C3.33537 9.968 3.57937 10 3.87537 10C4.25137 10 4.61936 9.924 4.97936 9.772C5.33937 9.62 5.66336 9.412 5.95136 9.148C6.23937 8.876 6.46736 8.572 6.63537 8.236C6.81136 7.892 6.89936 7.536 6.89936 7.168C6.89936 6.696 6.76336 6.356 6.49136 6.148C6.22737 5.932 5.88337 5.824 5.45936 5.824C5.29937 5.824 5.13936 5.836 4.97936 5.86C4.82736 5.876 4.68336 5.904 4.54736 5.944L4.66736 6.76C4.73083 6.74344 4.7962 6.72974 4.86347 6.71889C4.99124 6.6983 5.12587 6.688 5.26736 6.688C5.50736 6.688 5.67936 6.74 5.78336 6.844C5.89537 6.948 5.95136 7.096 5.95136 7.288C5.95136 7.528 5.89137 7.764 5.77136 7.996C5.65136 8.22 5.49136 8.42 5.29137 8.596C5.09936 8.772 4.87936 8.912 4.63136 9.016C4.39137 9.12 4.15137 9.172 3.91137 9.172C3.61537 9.172 3.41536 9.104 3.31136 8.968C3.21537 8.832 3.16737 8.576 3.16737 8.2V4.888H7.31937V4.024H3.16737V3.112Z" fill="#FF8080"/>
</svg>
