<svg width="170" height="32" viewBox="0 0 170 32" fill="none" xmlns="http://www.w3.org/2000/svg">
<path d="M21.3334 12V9.33335H16V16.6667C15.44 16.2534 14.76 16 14 16C13.116 16 12.2681 16.3512 11.643 16.9763C11.0179 17.6015 10.6667 18.4493 10.6667 19.3334C10.6667 20.2174 11.0179 21.0653 11.643 21.6904C12.2681 22.3155 13.116 22.6667 14 22.6667C14.8841 22.6667 15.7319 22.3155 16.357 21.6904C16.9822 21.0653 17.3334 20.2174 17.3334 19.3334V12H21.3334ZM16 2.66669C17.751 2.66669 19.4848 3.01156 21.1025 3.68163C22.7201 4.35169 24.19 5.33382 25.4281 6.57193C26.6662 7.81004 27.6484 9.2799 28.3184 10.8976C28.9885 12.5152 29.3334 14.2491 29.3334 16C29.3334 19.5362 27.9286 22.9276 25.4281 25.4281C22.9276 27.9286 19.5362 29.3334 16 29.3334C14.2491 29.3334 12.5152 28.9885 10.8976 28.3184C9.2799 27.6484 7.81004 26.6662 6.57193 25.4281C4.07144 22.9276 2.66669 19.5362 2.66669 16C2.66669 12.4638 4.07144 9.07241 6.57193 6.57193C9.07241 4.07144 12.4638 2.66669 16 2.66669Z" fill="#8080FF"/>
<path d="M41.88 23V9H48.44C50.12 9 51.4 9.33333 52.28 10C53.16 10.6533 53.6 11.5333 53.6 12.64C53.6 13.3867 53.4267 14.0267 53.08 14.56C52.7333 15.08 52.2667 15.4867 51.68 15.78C51.1067 16.06 50.48 16.2 49.8 16.2L50.16 15.48C50.9467 15.48 51.6533 15.6267 52.28 15.92C52.9067 16.2 53.4 16.6133 53.76 17.16C54.1333 17.7067 54.32 18.3867 54.32 19.2C54.32 20.4 53.86 21.3333 52.94 22C52.02 22.6667 50.6533 23 48.84 23H41.88ZM44.48 20.96H48.68C49.6533 20.96 50.4 20.8 50.92 20.48C51.44 20.16 51.7 19.6467 51.7 18.94C51.7 18.2467 51.44 17.74 50.92 17.42C50.4 17.0867 49.6533 16.92 48.68 16.92H44.28V14.9H48.16C49.0667 14.9 49.76 14.74 50.24 14.42C50.7333 14.1 50.98 13.62 50.98 12.98C50.98 12.3267 50.7333 11.84 50.24 11.52C49.76 11.2 49.0667 11.04 48.16 11.04H44.48V20.96ZM63.4348 23V20.84L63.2948 20.38V16.6C63.2948 15.8667 63.0748 15.3 62.6348 14.9C62.1948 14.4867 61.5282 14.28 60.6348 14.28C60.0348 14.28 59.4415 14.3733 58.8548 14.56C58.2815 14.7467 57.7948 15.0067 57.3948 15.34L56.4148 13.52C56.9882 13.08 57.6682 12.7533 58.4548 12.54C59.2548 12.3133 60.0815 12.2 60.9348 12.2C62.4815 12.2 63.6748 12.5733 64.5148 13.32C65.3682 14.0533 65.7948 15.1933 65.7948 16.74V23H63.4348ZM60.0748 23.14C59.2748 23.14 58.5748 23.0067 57.9748 22.74C57.3748 22.46 56.9082 22.08 56.5748 21.6C56.2548 21.1067 56.0948 20.5533 56.0948 19.94C56.0948 19.34 56.2348 18.8 56.5148 18.32C56.8082 17.84 57.2815 17.46 57.9348 17.18C58.5882 16.9 59.4548 16.76 60.5348 16.76H63.6348V18.42H60.7148C59.8615 18.42 59.2882 18.56 58.9948 18.84C58.7015 19.1067 58.5548 19.44 58.5548 19.84C58.5548 20.2933 58.7348 20.6533 59.0948 20.92C59.4548 21.1867 59.9548 21.32 60.5948 21.32C61.2082 21.32 61.7548 21.18 62.2348 20.9C62.7282 20.62 63.0815 20.2067 63.2948 19.66L63.7148 21.16C63.4748 21.7867 63.0415 22.2733 62.4148 22.62C61.8015 22.9667 61.0215 23.14 60.0748 23.14ZM75.0633 12.2C75.9166 12.2 76.6766 12.3667 77.3433 12.7C78.0233 13.0333 78.5566 13.5467 78.9433 14.24C79.3299 14.92 79.5233 15.8 79.5233 16.88V23H77.0233V17.2C77.0233 16.2533 76.7966 15.5467 76.3433 15.08C75.9033 14.6133 75.2833 14.38 74.4833 14.38C73.8966 14.38 73.3766 14.5 72.9233 14.74C72.4699 14.98 72.1166 15.34 71.8633 15.82C71.6233 16.2867 71.5033 16.88 71.5033 17.6V23H69.0033V12.32H71.3833V15.2L70.9633 14.32C71.3366 13.64 71.8766 13.12 72.5833 12.76C73.3033 12.3867 74.1299 12.2 75.0633 12.2ZM87.2342 23.14C86.2076 23.14 85.2809 22.9133 84.4542 22.46C83.6409 21.9933 83.0009 21.3533 82.5342 20.54C82.0676 19.7267 81.8342 18.7667 81.8342 17.66C81.8342 16.5533 82.0676 15.5933 82.5342 14.78C83.0009 13.9667 83.6409 13.3333 84.4542 12.88C85.2809 12.4267 86.2076 12.2 87.2342 12.2C88.1276 12.2 88.9276 12.4 89.6342 12.8C90.3409 13.1867 90.9009 13.78 91.3142 14.58C91.7276 15.38 91.9342 16.4067 91.9342 17.66C91.9342 18.9 91.7342 19.9267 91.3342 20.74C90.9342 21.54 90.3809 22.14 89.6742 22.54C88.9676 22.94 88.1542 23.14 87.2342 23.14ZM87.5342 21C88.1342 21 88.6676 20.8667 89.1342 20.6C89.6142 20.3333 89.9942 19.9467 90.2742 19.44C90.5676 18.9333 90.7142 18.34 90.7142 17.66C90.7142 16.9667 90.5676 16.3733 90.2742 15.88C89.9942 15.3733 89.6142 14.9867 89.1342 14.72C88.6676 14.4533 88.1342 14.32 87.5342 14.32C86.9342 14.32 86.3942 14.4533 85.9142 14.72C85.4476 14.9867 85.0676 15.3733 84.7742 15.88C84.4942 16.3733 84.3542 16.9667 84.3542 17.66C84.3542 18.34 84.4942 18.9333 84.7742 19.44C85.0676 19.9467 85.4476 20.3333 85.9142 20.6C86.3942 20.8667 86.9342 21 87.5342 21ZM90.7742 23V20.48L90.8742 17.64L90.6742 14.8V8.16H93.1542V23H90.7742ZM99.7447 23.14C98.8514 23.14 97.9914 23.0267 97.1647 22.8C96.3514 22.56 95.7047 22.2733 95.2247 21.94L96.1847 20.04C96.6647 20.3467 97.238 20.6 97.9047 20.8C98.5714 21 99.238 21.1 99.9047 21.1C100.691 21.1 101.258 20.9933 101.605 20.78C101.965 20.5667 102.145 20.28 102.145 19.92C102.145 19.6267 102.025 19.4067 101.785 19.26C101.545 19.1 101.231 18.98 100.845 18.9C100.458 18.82 100.025 18.7467 99.5447 18.68C99.078 18.6133 98.6047 18.5267 98.1247 18.42C97.658 18.3 97.2314 18.1333 96.8447 17.92C96.458 17.6933 96.1447 17.3933 95.9047 17.02C95.6647 16.6467 95.5447 16.1533 95.5447 15.54C95.5447 14.86 95.738 14.2733 96.1247 13.78C96.5114 13.2733 97.0514 12.8867 97.7447 12.62C98.4514 12.34 99.2847 12.2 100.245 12.2C100.965 12.2 101.691 12.28 102.425 12.44C103.158 12.6 103.765 12.8267 104.245 13.12L103.285 15.02C102.778 14.7133 102.265 14.5067 101.745 14.4C101.238 14.28 100.731 14.22 100.225 14.22C99.4647 14.22 98.898 14.3333 98.5247 14.56C98.1647 14.7867 97.9847 15.0733 97.9847 15.42C97.9847 15.74 98.1047 15.98 98.3447 16.14C98.5847 16.3 98.898 16.4267 99.2847 16.52C99.6714 16.6133 100.098 16.6933 100.565 16.76C101.045 16.8133 101.518 16.9 101.985 17.02C102.451 17.14 102.878 17.3067 103.265 17.52C103.665 17.72 103.985 18.0067 104.225 18.38C104.465 18.7533 104.585 19.24 104.585 19.84C104.585 20.5067 104.385 21.0867 103.985 21.58C103.598 22.0733 103.045 22.46 102.325 22.74C101.605 23.0067 100.745 23.14 99.7447 23.14Z" fill="#8080FF"/>
<path d="M112.658 23.14C111.791 23.14 110.998 22.94 110.278 22.54C109.571 22.14 109.004 21.54 108.578 20.74C108.164 19.9267 107.958 18.9 107.958 17.66C107.958 16.4067 108.158 15.38 108.558 14.58C108.971 13.78 109.531 13.1867 110.238 12.8C110.944 12.4 111.751 12.2 112.658 12.2C113.711 12.2 114.638 12.4267 115.438 12.88C116.251 13.3333 116.891 13.9667 117.358 14.78C117.838 15.5933 118.078 16.5533 118.078 17.66C118.078 18.7667 117.838 19.7333 117.358 20.56C116.891 21.3733 116.251 22.0067 115.438 22.46C114.638 22.9133 113.711 23.14 112.658 23.14ZM106.738 26.88V12.32H109.118V14.84L109.038 17.68L109.238 20.52V26.88H106.738ZM112.378 21C112.978 21 113.511 20.8667 113.978 20.6C114.458 20.3333 114.838 19.9467 115.118 19.44C115.398 18.9333 115.538 18.34 115.538 17.66C115.538 16.9667 115.398 16.3733 115.118 15.88C114.838 15.3733 114.458 14.9867 113.978 14.72C113.511 14.4533 112.978 14.32 112.378 14.32C111.778 14.32 111.238 14.4533 110.758 14.72C110.278 14.9867 109.898 15.3733 109.618 15.88C109.338 16.3733 109.198 16.9667 109.198 17.66C109.198 18.34 109.338 18.9333 109.618 19.44C109.898 19.9467 110.278 20.3333 110.758 20.6C111.238 20.8667 111.778 21 112.378 21ZM120.449 23V12.32H122.949V23H120.449ZM121.709 10.56C121.242 10.56 120.855 10.4133 120.549 10.12C120.255 9.82667 120.109 9.47333 120.109 9.06C120.109 8.63333 120.255 8.28 120.549 8C120.855 7.70667 121.242 7.56 121.709 7.56C122.175 7.56 122.555 7.7 122.849 7.98C123.155 8.24667 123.309 8.58667 123.309 9C123.309 9.44 123.162 9.81333 122.869 10.12C122.575 10.4133 122.189 10.56 121.709 10.56ZM131.13 23.14C130.01 23.14 129.01 22.9067 128.13 22.44C127.263 21.96 126.583 21.3067 126.09 20.48C125.597 19.6533 125.35 18.7133 125.35 17.66C125.35 16.5933 125.597 15.6533 126.09 14.84C126.583 14.0133 127.263 13.3667 128.13 12.9C129.01 12.4333 130.01 12.2 131.13 12.2C132.17 12.2 133.083 12.4133 133.87 12.84C134.67 13.2533 135.277 13.8667 135.69 14.68L133.77 15.8C133.45 15.2933 133.057 14.92 132.59 14.68C132.137 14.44 131.643 14.32 131.11 14.32C130.497 14.32 129.943 14.4533 129.45 14.72C128.957 14.9867 128.57 15.3733 128.29 15.88C128.01 16.3733 127.87 16.9667 127.87 17.66C127.87 18.3533 128.01 18.9533 128.29 19.46C128.57 19.9533 128.957 20.3333 129.45 20.6C129.943 20.8667 130.497 21 131.11 21C131.643 21 132.137 20.88 132.59 20.64C133.057 20.4 133.45 20.0267 133.77 19.52L135.69 20.64C135.277 21.44 134.67 22.06 133.87 22.5C133.083 22.9267 132.17 23.14 131.13 23.14ZM139.793 20.62L139.853 17.48L145.433 12.32H148.433L143.693 17.08L142.373 18.18L139.793 20.62ZM137.753 23V8.16H140.253V23H137.753ZM145.813 23L141.913 18.18L143.493 16.18L148.853 23H145.813ZM155.058 23.14C153.872 23.14 152.832 22.9067 151.938 22.44C151.058 21.96 150.372 21.3067 149.878 20.48C149.398 19.6533 149.158 18.7133 149.158 17.66C149.158 16.5933 149.392 15.6533 149.858 14.84C150.338 14.0133 150.992 13.3667 151.818 12.9C152.658 12.4333 153.612 12.2 154.678 12.2C155.718 12.2 156.645 12.4267 157.458 12.88C158.272 13.3333 158.912 13.9733 159.378 14.8C159.845 15.6267 160.078 16.6 160.078 17.72C160.078 17.8267 160.072 17.9467 160.058 18.08C160.058 18.2133 160.052 18.34 160.038 18.46H151.138V16.8H158.718L157.738 17.32C157.752 16.7067 157.625 16.1667 157.358 15.7C157.092 15.2333 156.725 14.8667 156.258 14.6C155.805 14.3333 155.278 14.2 154.678 14.2C154.065 14.2 153.525 14.3333 153.058 14.6C152.605 14.8667 152.245 15.24 151.978 15.72C151.725 16.1867 151.598 16.74 151.598 17.38V17.78C151.598 18.42 151.745 18.9867 152.038 19.48C152.332 19.9733 152.745 20.3533 153.278 20.62C153.812 20.8867 154.425 21.02 155.118 21.02C155.718 21.02 156.258 20.9267 156.738 20.74C157.218 20.5533 157.645 20.26 158.018 19.86L159.358 21.4C158.878 21.96 158.272 22.3933 157.538 22.7C156.818 22.9933 155.992 23.14 155.058 23.14ZM162.48 23V12.32H164.86V15.26L164.58 14.4C164.9 13.68 165.4 13.1333 166.08 12.76C166.773 12.3867 167.633 12.2 168.66 12.2V14.58C168.553 14.5533 168.453 14.54 168.36 14.54C168.267 14.5267 168.173 14.52 168.08 14.52C167.133 14.52 166.38 14.8 165.82 15.36C165.26 15.9067 164.98 16.7267 164.98 17.82V23H162.48Z" fill="#FF8080"/>
</svg>
