<svg width="32" height="32" viewBox="0 0 32 32" fill="none" xmlns="http://www.w3.org/2000/svg">
<path d="M21.3333 12V9.33335H16V16.6667C15.44 16.2534 14.76 16 14 16C13.1159 16 12.2681 16.3512 11.643 16.9763C11.0179 17.6015 10.6667 18.4493 10.6667 19.3334C10.6667 20.2174 11.0179 21.0653 11.643 21.6904C12.2681 22.3155 13.1159 22.6667 14 22.6667C14.8841 22.6667 15.7319 22.3155 16.357 21.6904C16.9821 21.0653 17.3333 20.2174 17.3333 19.3334V12H21.3333ZM16 2.66669C17.751 2.66669 19.4848 3.01156 21.1024 3.68163C22.7201 4.35169 24.19 5.33382 25.4281 6.57193C26.6662 7.81004 27.6483 9.2799 28.3184 10.8976C28.9885 12.5152 29.3333 14.2491 29.3333 16C29.3333 19.5362 27.9286 22.9276 25.4281 25.4281C22.9276 27.9286 19.5362 29.3334 16 29.3334C14.249 29.3334 12.5152 28.9885 10.8976 28.3184C9.27988 27.6484 7.81003 26.6662 6.57191 25.4281C4.07143 22.9276 2.66667 19.5362 2.66667 16C2.66667 12.4638 4.07143 9.07241 6.57191 6.57193C9.0724 4.07144 12.4638 2.66669 16 2.66669Z" fill="#8080FF"/>
</svg>
